<?xml version="1.0" encoding="UTF-8"?>
<svg id="Vrstva_2" xmlns="http://www.w3.org/2000/svg" version="1.1" viewBox="0 0 250 250">
  <!-- Generator: Adobe Illustrator 29.1.0, SVG Export Plug-In . SVG Version: 2.1.0 Build 142)  -->
  <defs>
    <style>
      .st0 {
        opacity: .7;
      }

      .st1 {
        fill: #fbb03b;
      }
    </style>
  </defs>
  <g id="Vrstva_1-2">
    <circle class="st1" cx="125" cy="125" r="125"/>
  </g>
  <g class="st0">
    <path d="M170.7,70.2h-91.9c-4.9.5-8.4,3.9-8.8,8.8v91.9c.4,4.8,4,8.4,8.8,8.8h91.5c2.2,0,5-1.2,6.5-2.7,1.4-1.4,2.6-4,2.7-6.1v-91.5c-.2-5-3.9-8.8-8.8-9.2ZM112.5,111h-15.5v7.7h13.3v5.6h-13.3v8.6h15.5v5.6h-22.3v-33.1h22.3v5.6ZM122.3,121.6c1.5,3.3,13,1.3,13.8,9.1,1.1,10.9-21.2,11.4-21,0h5.7c.7.3.9,2.7,2.8,3.2,2.1.7,6.8.3,5.9-2.8-1.1-3.5-12.7-1.8-13.6-8.8-1.5-11.8,19.4-12,20.2-1.1h-6.9c-.1,0,.1-1.7-1.1-2.5-2.2-1.4-7.3-.2-5.9,2.8ZM154.6,123c-.6-.5-.1-3.8-3.7-4.2-7.1-.9-7.2,16.7.7,14.8,3.2-.7,2.7-3.7,3-3.7h6c.6,9.6-13.2,12-18.6,5.5-5-5.9-3.7-19.1,4.7-21.5,6.7-1.9,13.6,1,14.3,8.4-.2.9-6,.8-6.3.6Z"/>
    <path d="M169.4,183.2c-29.1,2-60.5-1.6-89.8,0-2.9-.3-5.8-1.1-8.1-2.9l-17.4,16.9c-.3,1.2,5.2,3.3,6.3,3.5,42.8.9,85.9.9,128.6,0,2.3-.6,4.5-1.5,6.3-3.1l-17.4-17.3c-2.4,2-5.5,2.7-8.6,3Z"/>
    <path d="M71.5,69.7c2.3-2,5.2-2.7,8.1-3,29.4-2,61,1.6,90.7,0,2.8.4,5.6,1.1,7.7,2.9l17.4-17.3c-2.8-2.4-6.1-3.4-9.6-3.7H62.6c-1.5,0-8.8,2.4-8.5,4l17.4,17Z"/>
    <path d="M201,67.4c0-1.9-.9-12.7-3.6-12.2l-16.9,16.9c1.5,2.6,2.3,5.1,2.5,8.1,2,29.1-1.6,60.5,0,89.8-.2,2.8-1.1,5.3-2.5,7.7l17.3,17c2.5-2.5,2.7-6.3,3.2-9.6-1.2-39,1.6-78.9,0-117.7Z"/>
    <path d="M66.5,170.5v-90.7c.2-2.7,1-5.4,2.5-7.7l-17.3-17c-2.4,2.4-3,5.9-3.2,9.2v121.6c.5,3.1.9,6.5,3.2,8.8l17.3-17c-1.2-2.3-2.4-4.6-2.5-7.3Z"/>
  </g>
</svg>