<?xml version="1.0" encoding="UTF-8"?>
<svg id="Vrstva_2" xmlns="http://www.w3.org/2000/svg" version="1.1" viewBox="0 0 250 250">
  <!-- Generator: Adobe Illustrator 29.1.0, SVG Export Plug-In . SVG Version: 2.1.0 Build 142)  -->
  <defs>
    <style>
      .st0 {
        fill: red;
      }

      .st1 {
        opacity: .7;
      }
    </style>
  </defs>
  <g id="Vrstva_1-2">
    <circle class="st0" cx="125" cy="125" r="125"/>
  </g>
  <g class="st1">
    <path d="M203.8,161.3c-.6-4.7-5.5-11.5-5.4-13,0-1.3,3.3-5.6,4.1-7.9,2.4-6.9,2.3-25.1-.3-32-.8-2-3.8-5.9-3.8-7.2,0-1.6,4.8-8.3,5.4-13,2.1-17.7.4-40.6-21.6-42.8-36.7-3.7-79.7,2.6-117,.2-20.8,4.1-22.1,25-20,42.6.6,4.7,5.5,11.5,5.4,13,0,1.3-3.3,5.6-4.1,7.9-2.4,6.9-2.3,25.1.3,32,.8,2,3.8,5.9,3.8,7.2,0,1.6-4.8,8.3-5.4,13-2.2,18.8-.3,40.4,22.5,42.9,36.7-2.4,77.4,3.1,113.6,0,22.8-2,24.7-24.4,22.5-42.9ZM68,61.3h113.1c9,.8,8.2,18.6,6.9,25-1,4.9-4.9,6.6-9.5,7.1l-109.6-.2c-4.9-.9-7.5-3.5-8.1-8.5-.8-6.8-1.9-22.4,7.2-23.3ZM180.4,140.5l-113.4-.2c-3.6-1.3-5.8-3.8-6.2-7.6-.7-5.7-1.4-21.4,5.3-23.4h115.9c1.4.3,3,1.5,3.9,2.5,3.6,4.2,5.3,29.3-5.6,28.7ZM188,181.3c-.8,4.6-4,6.8-8.6,7.1l-111.5-.2c-9-1.1-7.9-15.5-7.2-22.4.5-4.9,2.2-8,7.2-9.4h112.2c10.2.5,9.1,17.7,7.9,25Z"/>
    <path d="M101.9,164.5c-4.8-.8-19.9-.6-24.9,0-1.7.2-4.5,1-5.7,2.2-4.3,4-2.4,12.5,3.9,13.5,4.1.6,23.8.8,27.6,0,7.5-1.4,8.3-14.2-1-15.6Z"/>
    <path d="M146.4,164.7c-9.9,2.2-7,17.9,4.2,15.3,8.5-2,6.8-17.7-4.2-15.3Z"/>
    <path d="M166.4,178c7.2,7.8,19.2-4.3,11.4-11.4-7.5-6.8-18.3,3.9-11.4,11.4Z"/>
    <path d="M75.3,84.9c4.1.8,22.2.8,26.5.2,8.7-1.4,8.7-13.4,1.7-15.5-2.4-.7-26.3-.6-29.2,0-7.2,1.6-7.7,13.6.9,15.3Z"/>
    <path d="M148.1,85.1c12,.5,9.8-19.3-2.6-15.6-7.5,2.3-6.6,15.2,2.6,15.6Z"/>
    <path d="M178.5,82.3c6.4-7.7-5.5-18-12.1-10.8-7.4,8.1,5.4,18.8,12.1,10.8Z"/>
    <path d="M101.7,116.7c-4.1-.8-21.2-.8-25.4,0-8.9,1.6-9.7,13.2-1.5,15.8,3.7,1.1,21.9,1.2,26.1.6,10.1-1.6,10.4-14.4.8-16.3Z"/>
    <path d="M171.4,116.7c-10,1-9,16.1.7,16.3,10.5.2,10.2-17.4-.7-16.3Z"/>
    <path d="M147.3,116.7c-12.3,1.7-6.4,21.4,4.8,15,7.9-4.5,2.8-16-4.8-15Z"/>
  </g>
</svg>