<?xml version="1.0" encoding="UTF-8"?>
<svg id="Vrstva_2" data-name="Vrstva 2" xmlns="http://www.w3.org/2000/svg" viewBox="0 0 233.36 256.81">
  <defs>
    <style>
      .cls-1 {
        fill: #fff;
      }
    </style>
  </defs>
  <g id="Vrstva_1-2" data-name="Vrstva 1">
    <g>
      <polygon class="cls-1" points="148.3 199.07 135.37 221.65 128.7 233.32 115.23 256.81 101.52 233.08 60.31 161.72 87.06 161.23 114.99 209.59 121.67 197.92 100.35 160.99 92.76 147.86 79.48 148.1 52.75 148.59 39.91 126.34 32.25 113.12 13.15 80.03 0 56.69 28.11 56.69 41.69 56.69 66.11 56.69 78.86 78.83 97.98 111.92 72.29 112.39 53.17 79.29 39.88 79.54 59 112.63 66.63 125.85 79.92 125.61 105.61 125.14 118.45 147.39 126.04 160.52 134.6 175.34 148.3 199.07"/>
      <path class="cls-1" d="M138.19,149.57l8.76,15.23,12.26,21.34,13.15-22.93,1.86-3.25,7.66-13.39,2.5-4.36,4.03-7.02,6.46-11.29,4.01-6.99.11-.18-1.53-2.66-3.63-6.31,17.6-12.77,2.83-4.96,7.66-13.35,2.68-4.69,8.19-14.3.57-1h-47.25l-21.89.16-.62.02-9.05,15.8-.35.6-6.93,12.11-3.41,5.95-.29.51-4.01,6.99-9.43,16.45-1.06,1.86-2.5,4.36-2.41,4.21,6.09,10.56,7.95,13.3ZM189.52,90.5l-2.5.04-10.2.2-3.12.04h-.53l-1.31.04.11-.22-.29-.04,10.23-17.62h.18l.11-.18,12.2-.22,2.5-.04,1.06-.02,1.9-.04-10.34,18.06ZM161.92,135.69l-8.41.13-3.05.04-3.54.09-.93.02,1.46-2.57,10.49-18.3.2-.33,8.3-.15,8.63-.15.73-.02-1.37,2.39-.66,1.17-9.01,15.71-.82,1.42-.29.51-1.73.04Z"/>
      <polygon class="cls-1" points="8.44 100.2 31.04 139.21 31.33 172.95 60.63 190.19 82.76 228.68 8.44 186.05 8.44 100.2"/>
      <polygon class="cls-1" points="222.85 185.96 148.15 228.78 170.83 189.86 199.97 172.85 200.26 138.73 222.85 100.11 222.85 185.96"/>
      <path class="cls-1" d="M41.69,43.01L115.8,0l74.51,43.01h-45.17c-8.01-4.83-16.58-8.75-24.32-14.01-1.35-.92-4.39-3.18-4.63-3.04-2.34,1.43-2.79,1.68-3.62,2.19-8.39,5.21-17.36,9.56-25.71,14.86h-45.17Z"/>
      <polygon class="cls-1" points="148.85 56.69 115.81 113.8 82.76 56.69 148.85 56.69"/>
    </g>
  </g>
</svg>