<?xml version="1.0" encoding="UTF-8"?>
<svg id="Vrstva_2" data-name="Vrstva 2" xmlns="http://www.w3.org/2000/svg" viewBox="0 0 200 200">
  <defs>
    <style>
      .cls-1 {
        fill: #2e2e2e;
      }
    </style>
  </defs>
  <g id="Vrstva_1-2" data-name="Vrstva 1">
    <g>
      <path class="cls-1" d="M198.6,113.54c-.42-1.26-2.2-4.15-2.24-4.95-.03-.5,2-3.89,2.38-5.14,1.57-5.11,1.4-21.02.97-26.88-.36-4.9-1.77-7.38-4.2-11.28-.42-.68-1.32-.89-1.53-1.23L167.04,3.88l-3.49-3.61L38.15,0c-2.37-.15-3.99,1.98-5.2,3.87L6.31,63.55c-3.11,3.01-5.34,7.08-5.88,11.61-.66,5.6-.71,23.32.81,28.29.39,1.26,2.4,4.63,2.38,5.14-.04.82-1.59,2.94-2.01,4.15-2.25,6.52-2.05,28.19.25,34.76.38,1.1,1.71,2.64,1.77,3.36.04.43-2.02,3.94-2.39,5.15-1.51,4.93-1.55,25.81-.32,30.92,1.63,6.75,7.78,12.46,14.26,13.06h169.61c6.46-.58,12.63-6.36,14.26-13.06,1.28-5.31,1.2-26.24-.46-31.3-.39-1.2-2.17-4.13-2.16-4.86,0-.69,1.31-2.22,1.68-3.27,2.17-6.32,2.53-27.74.49-33.97ZM42.87,15.08l1.63-.87,111.86.11,20.36,45.17H23.27L42.87,15.08ZM186.49,181.3c-.24,2.27-.89,4.05-3.21,4.44l-165.66.06c-2.31.23-3.78-1.72-4.1-4-.5-3.51-.46-16.35,0-19.93.31-2.36,1.54-3.52,3.67-3.95l164.68-.06c.91,0,2.95.56,3.51,1.21.5.58,1.02,2.92,1.11,3.81.4,4.32.44,14.14,0,18.42ZM186.46,139.7c-.32,2.28-1.79,4.24-4.1,4l-165.66-.06c-1.53-.12-2.62-1.63-2.98-3.11-.61-2.55-.62-17.84-.2-20.76.22-1.56,1.23-3.54,2.76-3.87l167-.08c1.8.14,2.93,2.2,3.18,3.95.48,3.34.48,16.58,0,19.93ZM186.46,97.61c-.28,1.89-1.92,3.65-3.67,3.95l-164.69.06c-.98,0-2.84-.52-3.5-1.23-.54-.58-1.04-2.39-1.13-3.26-.44-4.22-.43-14.74.01-18.95.18-1.73.83-4.08,2.7-4.46l166.17-.04c2.54-.05,3.75,1.44,4.09,4.02.46,3.56.53,16.45.02,19.92Z"/>
      <path class="cls-1" d="M46.09,166.94c-6.67,1.64-2.13,13.99,4.3,9.36,4.62-3.33,1.82-10.87-4.3-9.36Z"/>
      <path class="cls-1" d="M28.01,166.94c-5.32,1.31-4.06,11.43,2.22,10.32,6.22-1.1,5.22-12.15-2.22-10.32Z"/>
      <path class="cls-1" d="M62.53,168.07c-4.76,5.08,2.79,12.86,7.17,7.46,4.13-5.08-2.96-11.96-7.17-7.46Z"/>
      <path class="cls-1" d="M28.52,82.21c-6.1,1.15-4.87,12.17,2.7,10.31,5.06-1.24,3.79-11.53-2.7-10.31Z"/>
      <path class="cls-1" d="M47.1,82.21c-6.25.82-5.72,12.27,2.21,10.31,5.47-1.35,3.64-11.09-2.21-10.31Z"/>
      <path class="cls-1" d="M62.53,91.41c4.21,4.5,11.3-2.39,7.17-7.46-4.37-5.36-11.99,2.32-7.17,7.46Z"/>
      <path class="cls-1" d="M66.11,124.38c-6.69.12-6.47,10.34-.51,10.71,6.86.43,6.84-10.83.51-10.71Z"/>
      <path class="cls-1" d="M47.54,124.4c-8.14.3-4.58,14.6,2.79,9.73,4.38-2.89,2.07-9.91-2.79-9.73Z"/>
      <path class="cls-1" d="M25.88,125.97c-4.33,4.69,2.15,12.32,6.94,7.73,4.85-4.66-2.2-12.86-6.94-7.73Z"/>
    </g>
  </g>
</svg>