<?xml version="1.0" encoding="UTF-8"?>
<svg id="Vrstva_2" data-name="Vrstva 2" xmlns="http://www.w3.org/2000/svg" viewBox="0 0 50 50">
  <defs>
    <style>
      .cls-1 {
        fill: #eee;
      }
    </style>
  </defs>
  <g id="Vrstva_1-2" data-name="Vrstva 1">
    <g>
      <polygon class="cls-1" points="28.84 34.14 27 31.25 25.38 28.7 22.63 24.36 17.12 24.46 14.28 24.5 12.64 21.93 8.55 15.49 11.39 15.44 15.49 21.88 20.99 21.79 16.9 15.35 14.16 11.04 8.93 11.04 6.02 11.04 0 11.04 2.82 15.58 6.91 22.02 8.55 24.6 11.3 28.93 17.03 28.83 19.88 28.79 21.5 31.34 26.07 38.53 24.64 40.81 18.65 31.39 12.92 31.49 21.75 45.38 24.69 50 27.57 45.43 29.01 43.16 31.78 38.76 28.84 34.14"/>
      <path class="cls-1" d="M44.84,11.04h-4.96l-4.69.03h-.13s-1.94,3.08-1.94,3.08l-.08.12-1.48,2.36-.73,1.16-.06.1-.86,1.36-2.02,3.2-.23.36-.54.85-.52.82,1.3,2.06,1.7,2.59,1.88,2.96,2.63,4.15,2.82-4.46.4-.63,1.64-2.61.54-.85.86-1.37,1.38-2.2.86-1.36.02-.03-.33-.52-.78-1.23,3.77-2.49.61-.97,1.64-2.6.57-.91,1.75-2.78.12-.2h-5.16ZM37.37,22.75l-.14.23-1.93,3.06-.18.28-.06.1h-.37s-1.8.03-1.8.03h-.65s-.76.03-.76.03h-.2s.31-.5.31-.5l2.25-3.56.04-.06,1.78-.03,1.85-.03h.16s-.29.46-.29.46ZM40.61,17.62h-.54s-2.19.05-2.19.05h-.67s-.11,0-.11,0h-.28s.02-.03.02-.03h-.06s2.19-3.44,2.19-3.44h.04l.02-.03,2.61-.04h.54s.23-.01.23-.01h.41s-2.21,3.51-2.21,3.51Z"/>
      <polygon class="cls-1" points="6.71 33.67 6.65 27.1 1.81 19.51 1.81 36.22 17.73 44.52 12.99 37.03 6.71 33.67"/>
      <polygon class="cls-1" points="42.85 33.65 36.6 36.97 31.74 44.54 47.75 36.2 47.75 19.49 42.91 27.01 42.85 33.65"/>
      <path class="cls-1" d="M24.12,5.48c.18-.1.41-.46.78-.43.06,0,.82.5.99.59,1.73.92,3.49,1.79,5.21,2.73h9.68L24.81,0l-15.88,8.37h9.68c1.79-1.03,3.71-1.88,5.51-2.89Z"/>
      <polygon class="cls-1" points="24.81 22.16 31.89 11.04 17.73 11.04 24.81 22.16"/>
    </g>
  </g>
</svg>